<?xml version="1.0" encoding="utf-8"?>
<!-- Generator: Adobe Illustrator 24.0.1, SVG Export Plug-In . SVG Version: 6.00 Build 0)  -->
<svg version="1.1" id="Layer_1" xmlns="http://www.w3.org/2000/svg" xmlns:xlink="http://www.w3.org/1999/xlink" x="0px" y="0px"
	 width="50px" height="50px" viewBox="0 0 50 50" style="enable-background:new 0 0 50 50;" xml:space="preserve">
<style type="text/css">
	.st0{fill:none;}
</style>
<g>
	<polygon class="st0" points="45.1,0 0,45.1 0,46.5 46.5,0 	"/>
	<polygon class="st0" points="22,0 0,22 0,27.3 27.3,0 	"/>
	<polygon class="st0" points="50,0.6 0.6,50 2.1,50 50,2.1 	"/>
	<polygon class="st0" points="50,3.5 3.5,50 4.9,50 50,4.9 	"/>
	<polygon class="st0" points="50,6.3 6.3,50 21.3,50 50,21.3 	"/>
	<polygon class="st0" points="0,0 0,13.8 13.8,0 	"/>
	<polygon class="st0" points="15.2,0 0,15.2 0,20.6 20.6,0 	"/>
	<polygon class="st0" points="28.7,0 0,28.7 0,43.7 43.7,0 	"/>
	<polygon class="st0" points="47.9,0 0,47.9 0,49.1 49.1,0 	"/>
	<polygon class="st0" points="36.2,50 50,50 50,36.2 	"/>
	<polygon class="st0" points="50,29.4 29.4,50 34.8,50 50,34.8 	"/>
	<polygon class="st0" points="50,22.7 22.7,50 28,50 50,28 	"/>
	<polygon points="43.7,0 0,43.7 0,45.1 45.1,0 	"/>
	<polygon points="50,0 49.1,0 0,49.1 0,50 0.6,50 50,0.6 	"/>
	<polygon points="46.5,0 0,46.5 0,47.9 47.9,0 	"/>
	<polygon points="50,2.1 2.1,50 3.5,50 50,3.5 	"/>
	<polygon points="50,4.9 4.9,50 6.3,50 50,6.3 	"/>
	<polygon points="13.8,0 0,13.8 0,15.2 15.2,0 	"/>
	<polygon points="27.3,0 0,27.3 0,28.7 28.7,0 	"/>
	<polygon points="20.6,0 0,20.6 0,22 22,0 	"/>
	<polygon points="50,21.3 21.3,50 22.7,50 50,22.7 	"/>
	<polygon points="50,34.8 34.8,50 36.2,50 50,36.2 	"/>
	<polygon points="50,28 28,50 29.4,50 50,29.4 	"/>
</g>
</svg>
