<svg enable-background="new 0 0 190.2 176.3" height="176.3" viewBox="0 0 190.2 176.3" width="190.2" xmlns="http://www.w3.org/2000/svg"><path d="m177.2 0h-164.2c-7.2 0-13 5.8-13 13v149.8c0 7.2 5.8 13 13 13h164.2c7.2 0 13-5.8 13-13v-149.8c0-7.2-5.8-13-13-13zm-174.2 13c0-.7.1-1.4.2-2 .3-1.3.8-2.5 1.5-3.6.4-.5.8-1 1.2-1.5.7-.7 1.5-1.3 2.3-1.7 1.5-.8 3.1-1.2 4.8-1.2h164.2c1.7 0 3.3.4 4.8 1.2.9.5 1.6 1 2.3 1.7.5.5.9.9 1.2 1.5.7 1.1 1.2 2.3 1.5 3.6.1.7.2 1.3.2 2v24.6h-184.2zm184.2 149.8c0 .7-.1 1.4-.2 2-.3 1.3-.8 2.5-1.5 3.6-.4.5-.8 1-1.2 1.5-.7.7-1.5 1.3-2.3 1.7-1.4.8-3 1.2-4.8 1.2h-164.2c-1.7 0-3.3-.4-4.8-1.2-.9-.5-1.6-1-2.3-1.7-.5-.5-.9-.9-1.2-1.5-.7-1.1-1.2-2.3-1.5-3.6-.1-.7-.2-1.3-.2-2v-124.2h184.2z"/><path d="m187.2 13c0-.7-.1-1.4-.2-2-.3-1.3-.8-2.5-1.5-3.6-.4-.5-.8-1-1.2-1.5-.7-.7-1.5-1.3-2.3-1.7-1.4-.8-3-1.2-4.8-1.2h-164.2c-1.7 0-3.3.4-4.8 1.2-.9.5-1.6 1-2.3 1.7-.4.5-.8 1-1.2 1.5-.7 1.1-1.2 2.3-1.5 3.6-.1.6-.2 1.3-.2 2v24.6h184.2zm-165.1 14.4c-3.5 0-6.4-2.9-6.4-6.4s2.9-6.4 6.4-6.4 6.4 2.9 6.4 6.4-2.8 6.4-6.4 6.4zm17.7 0c-3.5 0-6.4-2.9-6.4-6.4s2.9-6.4 6.4-6.4 6.4 2.9 6.4 6.4-2.9 6.4-6.4 6.4zm17.6 0c-3.5 0-6.4-2.9-6.4-6.4s2.9-6.4 6.4-6.4 6.4 2.9 6.4 6.4-2.9 6.4-6.4 6.4z" fill="#fff"/><path d="m22.1 13.5c-4.1 0-7.4 3.3-7.4 7.4s3.3 7.4 7.4 7.4 7.4-3.3 7.4-7.4c0-4-3.3-7.4-7.4-7.4zm0 13.9c-3.5 0-6.4-2.9-6.4-6.4s2.9-6.4 6.4-6.4 6.4 2.9 6.4 6.4-2.8 6.4-6.4 6.4z"/><path d="m39.8 13.5c-4.1 0-7.4 3.3-7.4 7.4s3.3 7.4 7.4 7.4 7.4-3.3 7.4-7.4c0-4-3.4-7.4-7.4-7.4zm0 13.9c-3.5 0-6.4-2.9-6.4-6.4s2.9-6.4 6.4-6.4 6.4 2.9 6.4 6.4-2.9 6.4-6.4 6.4z"/><path d="m57.4 13.5c-4.1 0-7.4 3.3-7.4 7.4s3.3 7.4 7.4 7.4 7.4-3.3 7.4-7.4c0-4-3.3-7.4-7.4-7.4zm0 13.9c-3.5 0-6.4-2.9-6.4-6.4s2.9-6.4 6.4-6.4 6.4 2.9 6.4 6.4-2.9 6.4-6.4 6.4z"/><g fill="#00f"><ellipse cx="22.1" cy="21" rx="6.4" ry="6.4" transform="matrix(.9871 -.1602 .1602 .9871 -3.0703 3.8145)"/><ellipse cx="39.8" cy="21" rx="6.4" ry="6.4" transform="matrix(.9871 -.1602 .1602 .9871 -2.8426 6.6386)"/><ellipse cx="57.4" cy="21" rx="6.4" ry="6.4" transform="matrix(.9871 -.1602 .1602 .9871 -2.615 9.4627)"/></g></svg>