<?xml version="1.0" encoding="utf-8"?>
<!-- Generator: Adobe Illustrator 23.0.4, SVG Export Plug-In . SVG Version: 6.00 Build 0)  -->
<svg version="1.1" id="Layer_1" xmlns="http://www.w3.org/2000/svg" xmlns:xlink="http://www.w3.org/1999/xlink" x="0px" y="0px"
	 width="184.2px" height="134.1px" viewBox="0 0 184.2 134.1" style="enable-background:new 0 0 184.2 134.1;" xml:space="preserve"
	>
<path d="M0,124.1c0,0.7,0.1,1.4,0.2,2c0.3,1.3,0.8,2.5,1.5,3.6c0.4,0.5,0.8,1,1.2,1.5c0.7,0.7,1.5,1.3,2.3,1.7
	c1.4,0.8,3,1.2,4.8,1.2h164.2c1.7,0,3.3-0.4,4.8-1.2c0.9-0.5,1.6-1,2.3-1.7c0.5-0.5,0.9-0.9,1.2-1.5c0.7-1.1,1.2-2.3,1.5-3.6
	c0.1-0.7,0.2-1.3,0.2-2V0H0V124.1z"/>
</svg>
